<svg width="48" height="48" viewBox="0 0 48 48" fill="none" xmlns="http://www.w3.org/2000/svg">
<rect width="48" height="48" rx="12" fill="#223B7D"/>
<g clip-path="url(#clip0_360_22716)">
<path d="M26.5 22.0001H28.9998C29.0473 22.0001 29.0942 22.0102 29.1374 22.0298C29.1806 22.0494 29.2191 22.0781 29.2504 22.1137C29.2817 22.1494 29.305 22.1914 29.3187 22.2368C29.3316 22.2794 29.3358 22.3241 29.3312 22.3684L29.32 22.4312L28.4909 25.7474C28.4744 25.8132 28.4381 25.8724 28.387 25.9171C28.3383 25.9596 28.2784 25.9871 28.2146 25.9962L28.1512 26.0001H26.5H26V26.5001L26 31.5C26 31.5 26 31.5001 26 31.5001C26 31.5817 25.97 31.6605 25.9158 31.7215C25.864 31.7797 25.7935 31.8179 25.7167 31.8295L25.6517 31.8334H22.3334C22.3334 31.8334 22.3334 31.8334 22.3333 31.8334C22.2517 31.8334 22.1729 31.8034 22.1119 31.7492C22.0537 31.6974 22.0156 31.6269 22.0039 31.5501L22 31.4851V26.5001V26.0001H21.5H19.8334C19.8334 26.0001 19.8334 26.0001 19.8333 26.0001C19.7517 26.0001 19.6729 25.9701 19.6119 25.9158C19.5537 25.8641 19.5156 25.7936 19.5039 25.7168L19.5 25.6518V22.3335C19.5 22.3335 19.5 22.3334 19.5 22.3334C19.5 22.2518 19.53 22.173 19.5842 22.112C19.636 22.0538 19.7065 22.0156 19.7833 22.004L19.8483 22.0001H21.5H22V21.5001V20.6667V20.6667C22 19.5024 22.4512 18.3835 23.2588 17.5449C24.0654 16.7074 25.1648 16.2147 26.3264 16.1699L26.5044 16.1667H28.9999C29 16.1667 29 16.1667 29 16.1667C29.0816 16.1668 29.1604 16.1967 29.2214 16.251C29.2796 16.3028 29.3178 16.3732 29.3294 16.45L29.3333 16.515V19.8333C29.3333 19.8334 29.3333 19.8334 29.3333 19.8334C29.3333 19.915 29.3033 19.9938 29.2491 20.0548C29.1973 20.113 29.1269 20.1512 29.05 20.1629L28.9851 20.1667H26.5H26V20.6667V21.5001V22.0001H26.5Z" fill="white" stroke="#223B7D"/>
</g>
<defs>
<clipPath id="clip0_360_22716">
<rect width="20" height="20" fill="white" transform="translate(14 14)"/>
</clipPath>
</defs>
</svg>
