<svg width="100" height="100" viewBox="0 0 100 100" fill="none" xmlns="http://www.w3.org/2000/svg">
<mask id="mask0_360_22842" style="mask-type:alpha" maskUnits="userSpaceOnUse" x="0" y="0" width="100" height="100">
<rect width="100" height="100" fill="#D9D9D9"/>
</mask>
<g mask="url(#mask0_360_22842)">
<path fill-rule="evenodd" clip-rule="evenodd" d="M14.0741 4.32432H4.05469V0H14.0741C42.9372 0 66.3354 23.3983 66.3352 52.2614L66.3348 100.135L62.0105 100.135L62.0108 52.2613C62.011 25.7865 40.549 4.32432 14.0741 4.32432Z" fill="#121212"/>
<path fill-rule="evenodd" clip-rule="evenodd" d="M12.7218 13.1085H4.05273V8.78418H12.7218C37.4342 8.78418 57.4676 28.8173 57.468 53.5297L57.4687 100.136L53.1444 100.136L53.1437 53.5298C53.1433 31.2056 35.046 13.1085 12.7218 13.1085Z" fill="#121212"/>
<path fill-rule="evenodd" clip-rule="evenodd" d="M11.3698 22.1388H4.05273V17.8145H11.3698C31.9321 17.8145 48.6012 34.4835 48.6012 55.0458V100.135H44.2769V55.0458C44.2769 36.8718 29.5439 22.1388 11.3698 22.1388Z" fill="#121212"/>
<path fill-rule="evenodd" clip-rule="evenodd" d="M96.7378 40.0167H94.2328C85.041 40.0167 76.4579 42.6224 69.1816 47.1354V41.3434C76.6298 37.3021 85.1633 35.0068 94.2328 35.0068H96.7378V40.0167Z" fill="#121212"/>
<path fill-rule="evenodd" clip-rule="evenodd" d="M68.7998 73.9247C75.2049 65.4977 85.3356 60.0568 96.7371 60.0568V55.0469C85.7486 55.0469 75.793 59.469 68.5527 66.6307L68.7998 73.9247Z" fill="#121212"/>
<path fill-rule="evenodd" clip-rule="evenodd" d="M69.1816 60.1529C76.6087 53.843 86.2287 50.0363 96.7378 50.0363V45.0264C86.468 45.0264 76.958 48.2791 69.1816 53.8105V60.1529Z" fill="#121212"/>
</g>
</svg>
