<svg width="48" height="48" viewBox="0 0 48 48" fill="none" xmlns="http://www.w3.org/2000/svg">
<rect width="48" height="48" rx="12" fill="#333333"/>
<path d="M24.0006 21.3966C22.567 21.3966 21.3971 22.5665 21.3971 24.0001C21.3971 25.4337 22.567 26.6036 24.0006 26.6036C25.4342 26.6036 26.6041 25.4337 26.6041 24.0001C26.6041 22.5665 25.4342 21.3966 24.0006 21.3966ZM31.8092 24.0001C31.8092 22.922 31.8189 21.8536 31.7584 20.7774C31.6978 19.5274 31.4127 18.4181 30.4986 17.504C29.5826 16.588 28.4752 16.3048 27.2252 16.2442C26.1471 16.1837 25.0787 16.1935 24.0025 16.1935C22.9244 16.1935 21.8561 16.1837 20.7799 16.2442C19.5299 16.3048 18.4205 16.5899 17.5064 17.504C16.5904 18.42 16.3072 19.5274 16.2467 20.7774C16.1861 21.8556 16.1959 22.9239 16.1959 24.0001C16.1959 25.0763 16.1861 26.1466 16.2467 27.2227C16.3072 28.4727 16.5924 29.5821 17.5064 30.4962C18.4225 31.4122 19.5299 31.6954 20.7799 31.756C21.858 31.8165 22.9264 31.8067 24.0025 31.8067C25.0807 31.8067 26.149 31.8165 27.2252 31.756C28.4752 31.6954 29.5846 31.4102 30.4986 30.4962C31.4146 29.5802 31.6978 28.4727 31.7584 27.2227C31.8209 26.1466 31.8092 25.0782 31.8092 24.0001ZM24.0006 28.006C21.7838 28.006 19.9947 26.2169 19.9947 24.0001C19.9947 21.7833 21.7838 19.9942 24.0006 19.9942C26.2174 19.9942 28.0064 21.7833 28.0064 24.0001C28.0064 26.2169 26.2174 28.006 24.0006 28.006ZM28.1705 20.7657C27.6529 20.7657 27.235 20.3477 27.235 19.8302C27.235 19.3126 27.6529 18.8946 28.1705 18.8946C28.6881 18.8946 29.1061 19.3126 29.1061 19.8302C29.1062 19.9531 29.0821 20.0748 29.0351 20.1884C28.9882 20.3019 28.9193 20.4051 28.8324 20.492C28.7455 20.579 28.6423 20.6479 28.5287 20.6948C28.4151 20.7418 28.2934 20.7659 28.1705 20.7657Z" fill="white"/>
</svg>
