<svg width="456" height="75" viewBox="0 0 456 75" fill="none" xmlns="http://www.w3.org/2000/svg">
<path d="M90.8541 45.0769C91.4834 45.1943 92.0007 45.5089 92.4061 46.0209C92.8114 46.5329 93.0141 47.1196 93.0141 47.7809C93.0141 48.3783 92.8647 48.9063 92.5661 49.3649C92.2781 49.8129 91.8567 50.1649 91.3021 50.4209C90.7474 50.6769 90.0914 50.8049 89.3341 50.8049H84.5181V39.6369H89.1261C89.8834 39.6369 90.5341 39.7596 91.0781 40.0049C91.6327 40.2503 92.0487 40.5916 92.3261 41.0289C92.6141 41.4663 92.7581 41.9623 92.7581 42.5169C92.7581 43.1676 92.5821 43.7116 92.2301 44.1489C91.8887 44.5863 91.4301 44.8956 90.8541 45.0769ZM86.7581 44.2449H88.8061C89.3394 44.2449 89.7501 44.1276 90.0381 43.8929C90.3261 43.6476 90.4701 43.3009 90.4701 42.8529C90.4701 42.4049 90.3261 42.0583 90.0381 41.8129C89.7501 41.5676 89.3394 41.4449 88.8061 41.4449H86.7581V44.2449ZM89.0141 48.9809C89.5581 48.9809 89.9794 48.8529 90.2781 48.5969C90.5874 48.3409 90.7421 47.9783 90.7421 47.5089C90.7421 47.0289 90.5821 46.6556 90.2621 46.3889C89.9421 46.1116 89.5101 45.9729 88.9661 45.9729H86.7581V48.9809H89.0141ZM99.9833 50.9169C98.938 50.9169 97.978 50.6716 97.1033 50.1809C96.2286 49.6903 95.5353 49.0129 95.0233 48.1489C94.5113 47.2743 94.2553 46.2876 94.2553 45.1889C94.2553 44.1009 94.5113 43.1249 95.0233 42.2609C95.5353 41.3863 96.2286 40.7036 97.1033 40.2129C97.978 39.7223 98.938 39.4769 99.9833 39.4769C101.039 39.4769 101.999 39.7223 102.863 40.2129C103.738 40.7036 104.426 41.3863 104.927 42.2609C105.439 43.1249 105.695 44.1009 105.695 45.1889C105.695 46.2876 105.439 47.2743 104.927 48.1489C104.426 49.0129 103.738 49.6903 102.863 50.1809C101.989 50.6716 101.029 50.9169 99.9833 50.9169ZM99.9833 48.9169C100.655 48.9169 101.247 48.7676 101.759 48.4689C102.271 48.1596 102.671 47.7223 102.959 47.1569C103.247 46.5916 103.391 45.9356 103.391 45.1889C103.391 44.4423 103.247 43.7916 102.959 43.2369C102.671 42.6716 102.271 42.2396 101.759 41.9409C101.247 41.6423 100.655 41.4929 99.9833 41.4929C99.3113 41.4929 98.714 41.6423 98.1913 41.9409C97.6793 42.2396 97.2793 42.6716 96.9913 43.2369C96.7033 43.7916 96.5593 44.4423 96.5593 45.1889C96.5593 45.9356 96.7033 46.5916 96.9913 47.1569C97.2793 47.7223 97.6793 48.1596 98.1913 48.4689C98.714 48.7676 99.3113 48.9169 99.9833 48.9169ZM115.138 42.9969C114.882 42.5276 114.53 42.1703 114.082 41.9249C113.634 41.6796 113.111 41.5569 112.514 41.5569C111.852 41.5569 111.266 41.7063 110.754 42.0049C110.242 42.3036 109.842 42.7303 109.554 43.2849C109.266 43.8396 109.122 44.4796 109.122 45.2049C109.122 45.9516 109.266 46.6023 109.554 47.1569C109.852 47.7116 110.263 48.1383 110.786 48.4369C111.308 48.7356 111.916 48.8849 112.61 48.8849C113.463 48.8849 114.162 48.6609 114.706 48.2129C115.25 47.7543 115.607 47.1196 115.778 46.3089H111.938V44.5969H117.986V46.5489C117.836 47.3276 117.516 48.0476 117.026 48.7089C116.535 49.3703 115.9 49.9036 115.122 50.3089C114.354 50.7036 113.49 50.9009 112.53 50.9009C111.452 50.9009 110.476 50.6609 109.602 50.1809C108.738 49.6903 108.055 49.0129 107.554 48.1489C107.063 47.2849 106.818 46.3036 106.818 45.2049C106.818 44.1063 107.063 43.1249 107.554 42.2609C108.055 41.3863 108.738 40.7089 109.602 40.2289C110.476 39.7383 111.447 39.4929 112.514 39.4929C113.772 39.4929 114.866 39.8023 115.794 40.4209C116.722 41.0289 117.362 41.8876 117.714 42.9969H115.138ZM121.051 38.0369L120.859 41.4289H119.339L119.131 38.0369H121.051ZM126.672 39.6369C127.845 39.6369 128.875 39.8663 129.76 40.3249C130.656 40.7836 131.344 41.4396 131.824 42.2929C132.315 43.1356 132.56 44.1169 132.56 45.2369C132.56 46.3569 132.315 47.3383 131.824 48.1809C131.344 49.0129 130.656 49.6583 129.76 50.1169C128.875 50.5756 127.845 50.8049 126.672 50.8049H122.768V39.6369H126.672ZM126.592 48.9009C127.765 48.9009 128.672 48.5809 129.312 47.9409C129.952 47.3009 130.272 46.3996 130.272 45.2369C130.272 44.0743 129.952 43.1676 129.312 42.5169C128.672 41.8556 127.765 41.5249 126.592 41.5249H125.008V48.9009H126.592ZM139.421 50.9169C138.375 50.9169 137.415 50.6716 136.541 50.1809C135.666 49.6903 134.973 49.0129 134.461 48.1489C133.949 47.2743 133.693 46.2876 133.693 45.1889C133.693 44.1009 133.949 43.1249 134.461 42.2609C134.973 41.3863 135.666 40.7036 136.541 40.2129C137.415 39.7223 138.375 39.4769 139.421 39.4769C140.477 39.4769 141.437 39.7223 142.301 40.2129C143.175 40.7036 143.863 41.3863 144.365 42.2609C144.877 43.1249 145.133 44.1009 145.133 45.1889C145.133 46.2876 144.877 47.2743 144.365 48.1489C143.863 49.0129 143.175 49.6903 142.301 50.1809C141.426 50.6716 140.466 50.9169 139.421 50.9169ZM139.421 48.9169C140.093 48.9169 140.685 48.7676 141.197 48.4689C141.709 48.1596 142.109 47.7223 142.397 47.1569C142.685 46.5916 142.829 45.9356 142.829 45.1889C142.829 44.4423 142.685 43.7916 142.397 43.2369C142.109 42.6716 141.709 42.2396 141.197 41.9409C140.685 41.6423 140.093 41.4929 139.421 41.4929C138.749 41.4929 138.151 41.6423 137.629 41.9409C137.117 42.2396 136.717 42.6716 136.429 43.2369C136.141 43.7916 135.997 44.4423 135.997 45.1889C135.997 45.9356 136.141 46.5916 136.429 47.1569C136.717 47.7223 137.117 48.1596 137.629 48.4689C138.151 48.7676 138.749 48.9169 139.421 48.9169ZM152.559 50.8049L150.095 46.4529H149.039V50.8049H146.799V39.6369H150.991C151.855 39.6369 152.591 39.7916 153.199 40.1009C153.807 40.3996 154.261 40.8103 154.559 41.3329C154.869 41.8449 155.023 42.4209 155.023 43.0609C155.023 43.7969 154.81 44.4636 154.383 45.0609C153.957 45.6476 153.322 46.0529 152.479 46.2769L155.151 50.8049H152.559ZM149.039 44.7729H150.911C151.519 44.7729 151.973 44.6289 152.271 44.3409C152.57 44.0423 152.719 43.6316 152.719 43.1089C152.719 42.5969 152.57 42.2023 152.271 41.9249C151.973 41.6369 151.519 41.4929 150.911 41.4929H149.039V44.7729ZM156.505 45.2049C156.505 44.1063 156.751 43.1249 157.241 42.2609C157.743 41.3863 158.42 40.7089 159.273 40.2289C160.137 39.7383 161.103 39.4929 162.169 39.4929C163.417 39.4929 164.511 39.8129 165.449 40.4529C166.388 41.0929 167.044 41.9783 167.417 43.1089H164.841C164.585 42.5756 164.223 42.1756 163.753 41.9089C163.295 41.6423 162.761 41.5089 162.153 41.5089C161.503 41.5089 160.921 41.6636 160.409 41.9729C159.908 42.2716 159.513 42.6983 159.225 43.2529C158.948 43.8076 158.809 44.4583 158.809 45.2049C158.809 45.9409 158.948 46.5916 159.225 47.1569C159.513 47.7116 159.908 48.1436 160.409 48.4529C160.921 48.7516 161.503 48.9009 162.153 48.9009C162.761 48.9009 163.295 48.7676 163.753 48.5009C164.223 48.2236 164.585 47.8183 164.841 47.2849H167.417C167.044 48.4263 166.388 49.3169 165.449 49.9569C164.521 50.5863 163.428 50.9009 162.169 50.9009C161.103 50.9009 160.137 50.6609 159.273 50.1809C158.42 49.6903 157.743 49.0129 157.241 48.1489C156.751 47.2849 156.505 46.3036 156.505 45.2049ZM178.595 39.6369V50.8049H176.355V46.0529H171.571V50.8049H169.331V39.6369H171.571V44.2289H176.355V39.6369H178.595ZM183.039 39.6369V50.8049H180.799V39.6369H183.039ZM187.492 49.0289H191.172V50.8049H185.252V39.6369H187.492V49.0289ZM194.836 39.6369V50.8049H192.596V39.6369H194.836ZM203.353 50.8049L199.289 45.8289V50.8049H197.049V39.6369H199.289V44.6449L203.353 39.6369H206.057L201.449 45.1729L206.185 50.8049H203.353ZM221.503 39.6369L217.407 50.8049H214.687L210.591 39.6369H212.991L216.063 48.5169L219.119 39.6369H221.503ZM229.694 48.6769H225.246L224.51 50.8049H222.158L226.174 39.6209H228.782L232.798 50.8049H230.43L229.694 48.6769ZM229.086 46.8849L227.47 42.2129L225.854 46.8849H229.086ZM240.352 39.6369V50.8049H238.112V39.6369H240.352ZM246.421 50.9169C245.642 50.9169 244.938 50.7836 244.309 50.5169C243.69 50.2503 243.2 49.8663 242.837 49.3649C242.474 48.8636 242.288 48.2716 242.277 47.5889H244.677C244.709 48.0476 244.869 48.4103 245.157 48.6769C245.456 48.9436 245.861 49.0769 246.373 49.0769C246.896 49.0769 247.306 48.9543 247.605 48.7089C247.904 48.4529 248.053 48.1223 248.053 47.7169C248.053 47.3863 247.952 47.1143 247.749 46.9009C247.546 46.6876 247.29 46.5223 246.981 46.4049C246.682 46.2769 246.266 46.1383 245.733 45.9889C245.008 45.7756 244.416 45.5676 243.957 45.3649C243.509 45.1516 243.12 44.8369 242.789 44.4209C242.469 43.9943 242.309 43.4289 242.309 42.7249C242.309 42.0636 242.474 41.4876 242.805 40.9969C243.136 40.5063 243.6 40.1329 244.197 39.8769C244.794 39.6103 245.477 39.4769 246.245 39.4769C247.397 39.4769 248.33 39.7596 249.045 40.3249C249.77 40.8796 250.17 41.6583 250.245 42.6609H247.781C247.76 42.2769 247.594 41.9623 247.285 41.7169C246.986 41.4609 246.586 41.3329 246.085 41.3329C245.648 41.3329 245.296 41.4449 245.029 41.6689C244.773 41.8929 244.645 42.2183 244.645 42.6449C244.645 42.9436 244.741 43.1943 244.933 43.3969C245.136 43.5889 245.381 43.7489 245.669 43.8769C245.968 43.9943 246.384 44.1329 246.917 44.2929C247.642 44.5063 248.234 44.7196 248.693 44.9329C249.152 45.1463 249.546 45.4663 249.877 45.8929C250.208 46.3196 250.373 46.8796 250.373 47.5729C250.373 48.1703 250.218 48.7249 249.909 49.2369C249.6 49.7489 249.146 50.1596 248.549 50.4689C247.952 50.7676 247.242 50.9169 246.421 50.9169ZM256.171 50.9169C255.392 50.9169 254.688 50.7836 254.059 50.5169C253.44 50.2503 252.95 49.8663 252.587 49.3649C252.224 48.8636 252.038 48.2716 252.027 47.5889H254.427C254.459 48.0476 254.619 48.4103 254.907 48.6769C255.206 48.9436 255.611 49.0769 256.123 49.0769C256.646 49.0769 257.056 48.9543 257.355 48.7089C257.654 48.4529 257.803 48.1223 257.803 47.7169C257.803 47.3863 257.702 47.1143 257.499 46.9009C257.296 46.6876 257.04 46.5223 256.731 46.4049C256.432 46.2769 256.016 46.1383 255.483 45.9889C254.758 45.7756 254.166 45.5676 253.707 45.3649C253.259 45.1516 252.87 44.8369 252.539 44.4209C252.219 43.9943 252.059 43.4289 252.059 42.7249C252.059 42.0636 252.224 41.4876 252.555 40.9969C252.886 40.5063 253.35 40.1329 253.947 39.8769C254.544 39.6103 255.227 39.4769 255.995 39.4769C257.147 39.4769 258.08 39.7596 258.795 40.3249C259.52 40.8796 259.92 41.6583 259.995 42.6609H257.531C257.51 42.2769 257.344 41.9623 257.035 41.7169C256.736 41.4609 256.336 41.3329 255.835 41.3329C255.398 41.3329 255.046 41.4449 254.779 41.6689C254.523 41.8929 254.395 42.2183 254.395 42.6449C254.395 42.9436 254.491 43.1943 254.683 43.3969C254.886 43.5889 255.131 43.7489 255.419 43.8769C255.718 43.9943 256.134 44.1329 256.667 44.2929C257.392 44.5063 257.984 44.7196 258.443 44.9329C258.902 45.1463 259.296 45.4663 259.627 45.8929C259.958 46.3196 260.123 46.8796 260.123 47.5729C260.123 48.1703 259.968 48.7249 259.659 49.2369C259.35 49.7489 258.896 50.1596 258.299 50.4689C257.702 50.7676 256.992 50.9169 256.171 50.9169ZM264.305 39.6369V50.8049H262.065V39.6369H264.305ZM274.838 52.7729L273.142 50.7409C272.673 50.8583 272.193 50.9169 271.702 50.9169C270.657 50.9169 269.697 50.6716 268.822 50.1809C267.947 49.6903 267.254 49.0129 266.742 48.1489C266.23 47.2743 265.974 46.2876 265.974 45.1889C265.974 44.1009 266.23 43.1249 266.742 42.2609C267.254 41.3863 267.947 40.7036 268.822 40.2129C269.697 39.7223 270.657 39.4769 271.702 39.4769C272.758 39.4769 273.718 39.7223 274.582 40.2129C275.457 40.7036 276.145 41.3863 276.646 42.2609C277.158 43.1249 277.414 44.1009 277.414 45.1889C277.414 46.1809 277.201 47.0876 276.774 47.9089C276.358 48.7196 275.787 49.3809 275.062 49.8929L277.622 52.7729H274.838ZM268.278 45.1889C268.278 45.9356 268.422 46.5916 268.71 47.1569C268.998 47.7223 269.398 48.1596 269.91 48.4689C270.433 48.7676 271.03 48.9169 271.702 48.9169C272.374 48.9169 272.966 48.7676 273.478 48.4689C273.99 48.1596 274.39 47.7223 274.678 47.1569C274.966 46.5916 275.11 45.9356 275.11 45.1889C275.11 44.4423 274.966 43.7916 274.678 43.2369C274.39 42.6716 273.99 42.2396 273.478 41.9409C272.966 41.6423 272.374 41.4929 271.702 41.4929C271.03 41.4929 270.433 41.6423 269.91 41.9409C269.398 42.2396 268.998 42.6716 268.71 43.2369C268.422 43.7916 268.278 44.4423 268.278 45.1889ZM285.8 50.8049L283.384 47.0449L281.192 50.8049H278.664L282.184 45.1729L278.616 39.6369H281.192L283.608 43.3809L285.784 39.6369H288.312L284.808 45.2529L288.376 50.8049H285.8ZM295.265 50.9169C294.219 50.9169 293.259 50.6716 292.385 50.1809C291.51 49.6903 290.817 49.0129 290.305 48.1489C289.793 47.2743 289.537 46.2876 289.537 45.1889C289.537 44.1009 289.793 43.1249 290.305 42.2609C290.817 41.3863 291.51 40.7036 292.385 40.2129C293.259 39.7223 294.219 39.4769 295.265 39.4769C296.321 39.4769 297.281 39.7223 298.145 40.2129C299.019 40.7036 299.707 41.3863 300.209 42.2609C300.721 43.1249 300.977 44.1009 300.977 45.1889C300.977 46.2876 300.721 47.2743 300.209 48.1489C299.707 49.0129 299.019 49.6903 298.145 50.1809C297.27 50.6716 296.31 50.9169 295.265 50.9169ZM295.265 48.9169C295.937 48.9169 296.529 48.7676 297.041 48.4689C297.553 48.1596 297.953 47.7223 298.241 47.1569C298.529 46.5916 298.673 45.9356 298.673 45.1889C298.673 44.4423 298.529 43.7916 298.241 43.2369C297.953 42.6716 297.553 42.2396 297.041 41.9409C296.529 41.6423 295.937 41.4929 295.265 41.4929C294.593 41.4929 293.995 41.6423 293.473 41.9409C292.961 42.2396 292.561 42.6716 292.273 43.2369C291.985 43.7916 291.841 44.4423 291.841 45.1889C291.841 45.9356 291.985 46.5916 292.273 47.1569C292.561 47.7223 292.961 48.1596 293.473 48.4689C293.995 48.7676 294.593 48.9169 295.265 48.9169ZM312.195 50.8049H309.955L304.883 43.1409V50.8049H302.643V39.6209H304.883L309.955 47.3009V39.6209H312.195V50.8049ZM321.257 48.6769H316.809L316.073 50.8049H313.721L317.737 39.6209H320.345L324.361 50.8049H321.993L321.257 48.6769ZM320.649 46.8849L319.033 42.2129L317.417 46.8849H320.649ZM336.362 50.8049L333.946 47.0449L331.754 50.8049H329.226L332.746 45.1729L329.178 39.6369H331.754L334.17 43.3809L336.346 39.6369H338.874L335.37 45.2529L338.938 50.8049H336.362ZM345.827 50.9169C344.782 50.9169 343.822 50.6716 342.947 50.1809C342.072 49.6903 341.379 49.0129 340.867 48.1489C340.355 47.2743 340.099 46.2876 340.099 45.1889C340.099 44.1009 340.355 43.1249 340.867 42.2609C341.379 41.3863 342.072 40.7036 342.947 40.2129C343.822 39.7223 344.782 39.4769 345.827 39.4769C346.883 39.4769 347.843 39.7223 348.707 40.2129C349.582 40.7036 350.27 41.3863 350.771 42.2609C351.283 43.1249 351.539 44.1009 351.539 45.1889C351.539 46.2876 351.283 47.2743 350.771 48.1489C350.27 49.0129 349.582 49.6903 348.707 50.1809C347.832 50.6716 346.872 50.9169 345.827 50.9169ZM345.827 48.9169C346.499 48.9169 347.091 48.7676 347.603 48.4689C348.115 48.1596 348.515 47.7223 348.803 47.1569C349.091 46.5916 349.235 45.9356 349.235 45.1889C349.235 44.4423 349.091 43.7916 348.803 43.2369C348.515 42.6716 348.115 42.2396 347.603 41.9409C347.091 41.6423 346.499 41.4929 345.827 41.4929C345.155 41.4929 344.558 41.6423 344.035 41.9409C343.523 42.2396 343.123 42.6716 342.835 43.2369C342.547 43.7916 342.403 44.4423 342.403 45.1889C342.403 45.9356 342.547 46.5916 342.835 47.1569C343.123 47.7223 343.523 48.1596 344.035 48.4689C344.558 48.7676 345.155 48.9169 345.827 48.9169ZM354.614 38.0369L354.422 41.4289H352.902L352.694 38.0369H354.614ZM362.843 39.6369V47.4769C362.843 48.5649 362.528 49.4129 361.899 50.0209C361.269 50.6183 360.427 50.9169 359.371 50.9169C358.304 50.9169 357.44 50.6076 356.779 49.9889C356.128 49.3703 355.803 48.5063 355.803 47.3969H358.043C358.053 47.8769 358.165 48.2503 358.379 48.5169C358.603 48.7836 358.923 48.9169 359.339 48.9169C359.744 48.9169 360.053 48.7889 360.267 48.5329C360.48 48.2769 360.587 47.9249 360.587 47.4769V39.6369H362.843ZM372.304 48.6769H367.856L367.12 50.8049H364.768L368.784 39.6209H371.392L375.408 50.8049H373.04L372.304 48.6769ZM371.696 46.8849L370.08 42.2129L368.464 46.8849H371.696ZM379.149 49.0289H382.829V50.8049H376.909V39.6369H379.149V49.0289ZM386.492 39.6369V50.8049H384.252V39.6369H386.492ZM396.482 42.9969C396.226 42.5276 395.874 42.1703 395.426 41.9249C394.978 41.6796 394.455 41.5569 393.858 41.5569C393.196 41.5569 392.61 41.7063 392.098 42.0049C391.586 42.3036 391.186 42.7303 390.898 43.2849C390.61 43.8396 390.466 44.4796 390.466 45.2049C390.466 45.9516 390.61 46.6023 390.898 47.1569C391.196 47.7116 391.607 48.1383 392.13 48.4369C392.652 48.7356 393.26 48.8849 393.954 48.8849C394.807 48.8849 395.506 48.6609 396.05 48.2129C396.594 47.7543 396.951 47.1196 397.122 46.3089H393.282V44.5969H399.33V46.5489C399.18 47.3276 398.86 48.0476 398.37 48.7089C397.879 49.3703 397.244 49.9036 396.466 50.3089C395.698 50.7036 394.834 50.9009 393.874 50.9009C392.796 50.9009 391.82 50.6609 390.946 50.1809C390.082 49.6903 389.399 49.0129 388.898 48.1489C388.407 47.2849 388.162 46.3036 388.162 45.2049C388.162 44.1063 388.407 43.1249 388.898 42.2609C389.399 41.3863 390.082 40.7089 390.946 40.2289C391.82 39.7383 392.791 39.4929 393.858 39.4929C395.116 39.4929 396.21 39.8023 397.138 40.4209C398.066 41.0289 398.706 41.8876 399.058 42.9969H396.482ZM403.227 39.6369V50.8049H400.987V39.6369H403.227ZM414.992 50.8049H412.752L407.68 43.1409V50.8049H405.44V39.6209H407.68L412.752 47.3009V39.6209H414.992V50.8049ZM419.446 39.6369V50.8049H417.206V39.6369H419.446ZM90.2781 70.8049L87.8141 66.4529H86.7581V70.8049H84.5181V59.6369H88.7101C89.5741 59.6369 90.3101 59.7916 90.9181 60.1009C91.5261 60.3996 91.9794 60.8103 92.2781 61.3329C92.5874 61.8449 92.7421 62.4209 92.7421 63.0609C92.7421 63.7969 92.5287 64.4636 92.1021 65.0609C91.6754 65.6476 91.0407 66.0529 90.1981 66.2769L92.8701 70.8049H90.2781ZM86.7581 64.7729H88.6301C89.2381 64.7729 89.6914 64.6289 89.9901 64.3409C90.2887 64.0423 90.4381 63.6316 90.4381 63.1089C90.4381 62.5969 90.2887 62.2023 89.9901 61.9249C89.6914 61.6369 89.2381 61.4929 88.6301 61.4929H86.7581V64.7729ZM97.0081 59.6369V70.8049H94.7681V59.6369H97.0081ZM109.253 59.6369L105.157 70.8049H102.437L98.3412 59.6369H100.741L103.813 68.5169L106.869 59.6369H109.253ZM115.78 70.9169C114.735 70.9169 113.775 70.6716 112.9 70.1809C112.026 69.6903 111.332 69.0129 110.82 68.1489C110.308 67.2743 110.052 66.2876 110.052 65.1889C110.052 64.1009 110.308 63.1249 110.82 62.2609C111.332 61.3863 112.026 60.7036 112.9 60.2129C113.775 59.7223 114.735 59.4769 115.78 59.4769C116.836 59.4769 117.796 59.7223 118.66 60.2129C119.535 60.7036 120.223 61.3863 120.724 62.2609C121.236 63.1249 121.492 64.1009 121.492 65.1889C121.492 66.2876 121.236 67.2743 120.724 68.1489C120.223 69.0129 119.535 69.6903 118.66 70.1809C117.786 70.6716 116.826 70.9169 115.78 70.9169ZM115.78 68.9169C116.452 68.9169 117.044 68.7676 117.556 68.4689C118.068 68.1596 118.468 67.7223 118.756 67.1569C119.044 66.5916 119.188 65.9356 119.188 65.1889C119.188 64.4423 119.044 63.7916 118.756 63.2369C118.468 62.6716 118.068 62.2396 117.556 61.9409C117.044 61.6423 116.452 61.4929 115.78 61.4929C115.108 61.4929 114.511 61.6423 113.988 61.9409C113.476 62.2396 113.076 62.6716 112.788 63.2369C112.5 63.7916 112.356 64.4423 112.356 65.1889C112.356 65.9356 112.5 66.5916 112.788 67.1569C113.076 67.7223 113.476 68.1596 113.988 68.4689C114.511 68.7676 115.108 68.9169 115.78 68.9169ZM129.671 59.6369V67.4769C129.671 68.5649 129.356 69.4129 128.727 70.0209C128.097 70.6183 127.255 70.9169 126.199 70.9169C125.132 70.9169 124.268 70.6076 123.607 69.9889C122.956 69.3703 122.631 68.5063 122.631 67.3969H124.871C124.881 67.8769 124.993 68.2503 125.207 68.5169C125.431 68.7836 125.751 68.9169 126.167 68.9169C126.572 68.9169 126.881 68.7889 127.095 68.5329C127.308 68.2769 127.415 67.9249 127.415 67.4769V59.6369H129.671ZM134.524 69.0289H138.204V70.8049H132.284V59.6369H134.524V69.0289ZM146.475 68.6769H142.027L141.291 70.8049H138.939L142.955 59.6209H145.563L149.579 70.8049H147.211L146.475 68.6769ZM145.867 66.8849L144.251 62.2129L142.635 66.8849H145.867ZM160.633 70.8049H158.393L153.321 63.1409V70.8049H151.081V59.6209H153.321L158.393 67.3009V59.6209H160.633V70.8049ZM170.446 59.6369V61.4449H167.47V70.8049H165.23V61.4449H162.254V59.6369H170.446ZM174.321 59.6369V70.8049H172.081V59.6369H174.321ZM182.294 70.8049L179.83 66.4529H178.774V70.8049H176.534V59.6369H180.726C181.59 59.6369 182.326 59.7916 182.934 60.1009C183.542 60.3996 183.995 60.8103 184.294 61.3329C184.603 61.8449 184.758 62.4209 184.758 63.0609C184.758 63.7969 184.544 64.4636 184.118 65.0609C183.691 65.6476 183.056 66.0529 182.214 66.2769L184.886 70.8049H182.294ZM178.774 64.7729H180.646C181.254 64.7729 181.707 64.6289 182.006 64.3409C182.304 64.0423 182.454 63.6316 182.454 63.1089C182.454 62.5969 182.304 62.2023 182.006 61.9249C181.707 61.6369 181.254 61.4929 180.646 61.4929H178.774V64.7729ZM189.024 59.6369V70.8049H186.784V59.6369H189.024ZM195.093 70.9169C194.314 70.9169 193.61 70.7836 192.981 70.5169C192.362 70.2503 191.871 69.8663 191.509 69.3649C191.146 68.8636 190.959 68.2716 190.949 67.5889H193.349C193.381 68.0476 193.541 68.4103 193.829 68.6769C194.127 68.9436 194.533 69.0769 195.045 69.0769C195.567 69.0769 195.978 68.9543 196.277 68.7089C196.575 68.4529 196.725 68.1223 196.725 67.7169C196.725 67.3863 196.623 67.1143 196.421 66.9009C196.218 66.6876 195.962 66.5223 195.653 66.4049C195.354 66.2769 194.938 66.1383 194.405 65.9889C193.679 65.7756 193.087 65.5676 192.629 65.3649C192.181 65.1516 191.791 64.8369 191.461 64.4209C191.141 63.9943 190.981 63.4289 190.981 62.7249C190.981 62.0636 191.146 61.4876 191.477 60.9969C191.807 60.5063 192.271 60.1329 192.869 59.8769C193.466 59.6103 194.149 59.4769 194.917 59.4769C196.069 59.4769 197.002 59.7596 197.717 60.3249C198.442 60.8796 198.842 61.6583 198.917 62.6609H196.453C196.431 62.2769 196.266 61.9623 195.957 61.7169C195.658 61.4609 195.258 61.3329 194.757 61.3329C194.319 61.3329 193.967 61.4449 193.701 61.6689C193.445 61.8929 193.317 62.2183 193.317 62.6449C193.317 62.9436 193.413 63.1943 193.605 63.3969C193.807 63.5889 194.053 63.7489 194.341 63.8769C194.639 63.9943 195.055 64.1329 195.589 64.2929C196.314 64.5063 196.906 64.7196 197.365 64.9329C197.823 65.1463 198.218 65.4663 198.549 65.8929C198.879 66.3196 199.045 66.8796 199.045 67.5729C199.045 68.1703 198.89 68.7249 198.581 69.2369C198.271 69.7489 197.818 70.1596 197.221 70.4689C196.623 70.7676 195.914 70.9169 195.093 70.9169ZM210.251 59.6369V70.8049H208.011V66.0529H203.227V70.8049H200.987V59.6369H203.227V64.2289H208.011V59.6369H210.251ZM223.116 68.6769H218.668L217.932 70.8049H215.58L219.596 59.6209H222.204L226.22 70.8049H223.852L223.116 68.6769ZM222.508 66.8849L220.892 62.2129L219.276 66.8849H222.508ZM235.497 62.9969C235.241 62.5276 234.889 62.1703 234.441 61.9249C233.993 61.6796 233.471 61.5569 232.873 61.5569C232.212 61.5569 231.625 61.7063 231.113 62.0049C230.601 62.3036 230.201 62.7303 229.913 63.2849C229.625 63.8396 229.481 64.4796 229.481 65.2049C229.481 65.9516 229.625 66.6023 229.913 67.1569C230.212 67.7116 230.623 68.1383 231.145 68.4369C231.668 68.7356 232.276 68.8849 232.969 68.8849C233.823 68.8849 234.521 68.6609 235.065 68.2129C235.609 67.7543 235.967 67.1196 236.137 66.3089H232.297V64.5969H238.345V66.5489C238.196 67.3276 237.876 68.0476 237.385 68.7089C236.895 69.3703 236.26 69.9036 235.481 70.3089C234.713 70.7036 233.849 70.9009 232.889 70.9009C231.812 70.9009 230.836 70.6609 229.961 70.1809C229.097 69.6903 228.415 69.0129 227.913 68.1489C227.423 67.2849 227.177 66.3036 227.177 65.2049C227.177 64.1063 227.423 63.1249 227.913 62.2609C228.415 61.3863 229.097 60.7089 229.961 60.2289C230.836 59.7383 231.807 59.4929 232.873 59.4929C234.132 59.4929 235.225 59.8023 236.153 60.4209C237.081 61.0289 237.721 61.8876 238.073 62.9969H235.497ZM242.242 61.4449V64.2449H246.002V66.0209H242.242V68.9809H246.482V70.8049H240.002V59.6209H246.482V61.4449H242.242ZM258.07 70.8049H255.83L250.758 63.1409V70.8049H248.518V59.6209H250.758L255.83 67.3009V59.6209H258.07V70.8049ZM267.884 59.6369V61.4449H264.908V70.8049H262.668V61.4449H259.692V59.6369H267.884ZM271.758 69.0289H275.438V70.8049H269.518V59.6369H271.758V69.0289ZM279.102 59.6369V70.8049H276.862V59.6369H279.102ZM289.091 62.9969C288.835 62.5276 288.483 62.1703 288.035 61.9249C287.587 61.6796 287.064 61.5569 286.467 61.5569C285.806 61.5569 285.219 61.7063 284.707 62.0049C284.195 62.3036 283.795 62.7303 283.507 63.2849C283.219 63.8396 283.075 64.4796 283.075 65.2049C283.075 65.9516 283.219 66.6023 283.507 67.1569C283.806 67.7116 284.216 68.1383 284.739 68.4369C285.262 68.7356 285.87 68.8849 286.563 68.8849C287.416 68.8849 288.115 68.6609 288.659 68.2129C289.203 67.7543 289.56 67.1196 289.731 66.3089H285.891V64.5969H291.939V66.5489C291.79 67.3276 291.47 68.0476 290.979 68.7089C290.488 69.3703 289.854 69.9036 289.075 70.3089C288.307 70.7036 287.443 70.9009 286.483 70.9009C285.406 70.9009 284.43 70.6609 283.555 70.1809C282.691 69.6903 282.008 69.0129 281.507 68.1489C281.016 67.2849 280.771 66.3036 280.771 65.2049C280.771 64.1063 281.016 63.1249 281.507 62.2609C282.008 61.3863 282.691 60.7089 283.555 60.2289C284.43 59.7383 285.4 59.4929 286.467 59.4929C287.726 59.4929 288.819 59.8023 289.747 60.4209C290.675 61.0289 291.315 61.8876 291.667 62.9969H289.091ZM295.836 59.6369V70.8049H293.596V59.6369H295.836Z" fill="#121212"/>
<path d="M91.6821 26.716L89.8751 24.909C89.4331 25.0303 88.9824 25.091 88.5231 25.091C87.6824 25.091 86.9154 24.896 86.2221 24.506C85.5287 24.1073 84.9784 23.557 84.5711 22.855C84.1724 22.1443 83.9731 21.347 83.9731 20.463C83.9731 19.579 84.1724 18.786 84.5711 18.084C84.9784 17.3733 85.5287 16.823 86.2221 16.433C86.9154 16.0343 87.6824 15.835 88.5231 15.835C89.3724 15.835 90.1437 16.0343 90.8371 16.433C91.5304 16.823 92.0764 17.369 92.4751 18.071C92.8737 18.773 93.0731 19.5703 93.0731 20.463C93.0731 21.3297 92.8824 22.1097 92.5011 22.803C92.1197 23.4963 91.5954 24.0423 90.9281 24.441L93.2161 26.716H91.6821ZM85.1821 20.463C85.1821 21.1823 85.3251 21.815 85.6111 22.361C85.9057 22.907 86.3044 23.3273 86.8071 23.622C87.3184 23.9167 87.8904 24.064 88.5231 24.064C89.1557 24.064 89.7234 23.9167 90.2261 23.622C90.7374 23.3273 91.1361 22.907 91.4221 22.361C91.7167 21.815 91.8641 21.1823 91.8641 20.463C91.8641 19.735 91.7167 19.1023 91.4221 18.565C91.1361 18.019 90.7417 17.5987 90.2391 17.304C89.7364 17.0093 89.1644 16.862 88.5231 16.862C87.8817 16.862 87.3097 17.0093 86.8071 17.304C86.3044 17.5987 85.9057 18.019 85.6111 18.565C85.3251 19.1023 85.1821 19.735 85.1821 20.463ZM95.8432 15.939V25H94.6602V15.939H95.8432ZM100.732 25.091C100.134 25.091 99.5971 24.987 99.1204 24.779C98.6524 24.5623 98.2841 24.2677 98.0154 23.895C97.7467 23.5137 97.6081 23.076 97.5994 22.582H98.8604C98.9037 23.0067 99.0771 23.3663 99.3804 23.661C99.6924 23.947 100.143 24.09 100.732 24.09C101.296 24.09 101.738 23.9513 102.058 23.674C102.388 23.388 102.552 23.024 102.552 22.582C102.552 22.2353 102.457 21.9537 102.266 21.737C102.076 21.5203 101.837 21.3557 101.551 21.243C101.265 21.1303 100.88 21.009 100.394 20.879C99.7964 20.723 99.3154 20.567 98.9514 20.411C98.5961 20.255 98.2884 20.0123 98.0284 19.683C97.7771 19.345 97.6514 18.8943 97.6514 18.331C97.6514 17.837 97.7771 17.3993 98.0284 17.018C98.2797 16.6367 98.6307 16.342 99.0814 16.134C99.5407 15.926 100.065 15.822 100.654 15.822C101.504 15.822 102.197 16.0343 102.734 16.459C103.28 16.8837 103.588 17.447 103.657 18.149H102.357C102.314 17.8023 102.132 17.499 101.811 17.239C101.491 16.9703 101.066 16.836 100.537 16.836C100.043 16.836 99.6404 16.966 99.3284 17.226C99.0164 17.4773 98.8604 17.8327 98.8604 18.292C98.8604 18.6213 98.9514 18.89 99.1334 19.098C99.3241 19.306 99.5537 19.4663 99.8224 19.579C100.1 19.683 100.485 19.8043 100.979 19.943C101.577 20.1077 102.058 20.2723 102.422 20.437C102.786 20.593 103.098 20.84 103.358 21.178C103.618 21.5073 103.748 21.958 103.748 22.53C103.748 22.972 103.631 23.388 103.397 23.778C103.163 24.168 102.817 24.4843 102.357 24.727C101.898 24.9697 101.356 25.091 100.732 25.091ZM112.47 15.939V25H111.287V20.892H106.672V25H105.489V15.939H106.672V19.917H111.287V15.939H112.47ZM115.673 24.038H118.845V25H114.49V15.939H115.673V24.038ZM124.21 25.091C123.369 25.091 122.602 24.896 121.909 24.506C121.215 24.1073 120.665 23.557 120.258 22.855C119.859 22.1443 119.66 21.347 119.66 20.463C119.66 19.579 119.859 18.786 120.258 18.084C120.665 17.3733 121.215 16.823 121.909 16.433C122.602 16.0343 123.369 15.835 124.21 15.835C125.059 15.835 125.83 16.0343 126.524 16.433C127.217 16.823 127.763 17.369 128.162 18.071C128.56 18.773 128.76 19.5703 128.76 20.463C128.76 21.3557 128.56 22.153 128.162 22.855C127.763 23.557 127.217 24.1073 126.524 24.506C125.83 24.896 125.059 25.091 124.21 25.091ZM124.21 24.064C124.842 24.064 125.41 23.9167 125.913 23.622C126.424 23.3273 126.823 22.907 127.109 22.361C127.403 21.815 127.551 21.1823 127.551 20.463C127.551 19.735 127.403 19.1023 127.109 18.565C126.823 18.019 126.428 17.5987 125.926 17.304C125.423 17.0093 124.851 16.862 124.21 16.862C123.568 16.862 122.996 17.0093 122.494 17.304C121.991 17.5987 121.592 18.019 121.298 18.565C121.012 19.1023 120.869 19.735 120.869 20.463C120.869 21.1823 121.012 21.815 121.298 22.361C121.592 22.907 121.991 23.3273 122.494 23.622C123.005 23.9167 123.577 24.064 124.21 24.064ZM137.588 26.716L135.781 24.909C135.339 25.0303 134.889 25.091 134.429 25.091C133.589 25.091 132.822 24.896 132.128 24.506C131.435 24.1073 130.885 23.557 130.477 22.855C130.079 22.1443 129.879 21.347 129.879 20.463C129.879 19.579 130.079 18.786 130.477 18.084C130.885 17.3733 131.435 16.823 132.128 16.433C132.822 16.0343 133.589 15.835 134.429 15.835C135.279 15.835 136.05 16.0343 136.743 16.433C137.437 16.823 137.983 17.369 138.381 18.071C138.78 18.773 138.979 19.5703 138.979 20.463C138.979 21.3297 138.789 22.1097 138.407 22.803C138.026 23.4963 137.502 24.0423 136.834 24.441L139.122 26.716H137.588ZM131.088 20.463C131.088 21.1823 131.231 21.815 131.517 22.361C131.812 22.907 132.211 23.3273 132.713 23.622C133.225 23.9167 133.797 24.064 134.429 24.064C135.062 24.064 135.63 23.9167 136.132 23.622C136.644 23.3273 137.042 22.907 137.328 22.361C137.623 21.815 137.77 21.1823 137.77 20.463C137.77 19.735 137.623 19.1023 137.328 18.565C137.042 18.019 136.648 17.5987 136.145 17.304C135.643 17.0093 135.071 16.862 134.429 16.862C133.788 16.862 133.216 17.0093 132.713 17.304C132.211 17.5987 131.812 18.019 131.517 18.565C131.231 19.1023 131.088 19.735 131.088 20.463ZM147.737 20.476L150.519 25H149.18L147.009 21.464L144.942 25H143.629L146.398 20.476L143.616 15.939H144.942L147.126 19.488L149.206 15.939H150.532L147.737 20.476ZM156.214 25.091C155.374 25.091 154.607 24.896 153.913 24.506C153.22 24.1073 152.67 23.557 152.262 22.855C151.864 22.1443 151.664 21.347 151.664 20.463C151.664 19.579 151.864 18.786 152.262 18.084C152.67 17.3733 153.22 16.823 153.913 16.433C154.607 16.0343 155.374 15.835 156.214 15.835C157.064 15.835 157.835 16.0343 158.528 16.433C159.222 16.823 159.768 17.369 160.166 18.071C160.565 18.773 160.764 19.5703 160.764 20.463C160.764 21.3557 160.565 22.153 160.166 22.855C159.768 23.557 159.222 24.1073 158.528 24.506C157.835 24.896 157.064 25.091 156.214 25.091ZM156.214 24.064C156.847 24.064 157.415 23.9167 157.917 23.622C158.429 23.3273 158.827 22.907 159.113 22.361C159.408 21.815 159.555 21.1823 159.555 20.463C159.555 19.735 159.408 19.1023 159.113 18.565C158.827 18.019 158.433 17.5987 157.93 17.304C157.428 17.0093 156.856 16.862 156.214 16.862C155.573 16.862 155.001 17.0093 154.498 17.304C153.996 17.5987 153.597 18.019 153.302 18.565C153.016 19.1023 152.873 19.735 152.873 20.463C152.873 21.1823 153.016 21.815 153.302 22.361C153.597 22.907 153.996 23.3273 154.498 23.622C155.01 23.9167 155.582 24.064 156.214 24.064ZM162.924 14.652L162.768 17.239H161.949L161.78 14.652H162.924ZM168.959 15.939V22.634C168.959 23.3793 168.729 23.9773 168.27 24.428C167.81 24.87 167.204 25.091 166.45 25.091C165.687 25.091 165.076 24.8657 164.617 24.415C164.157 23.9557 163.928 23.3317 163.928 22.543H165.111C165.119 22.985 165.232 23.3447 165.449 23.622C165.674 23.8993 166.008 24.038 166.45 24.038C166.892 24.038 167.221 23.908 167.438 23.648C167.654 23.3793 167.763 23.0413 167.763 22.634V15.939H168.959ZM176.645 22.985H172.693L171.965 25H170.717L173.993 15.991H175.358L178.621 25H177.373L176.645 22.985ZM176.307 22.023L174.669 17.447L173.031 22.023H176.307ZM181.232 24.038H184.404V25H180.049V15.939H181.232V24.038ZM186.843 15.939V25H185.66V15.939H186.843ZM195.723 18.565C195.472 18.0363 195.108 17.629 194.631 17.343C194.155 17.0483 193.6 16.901 192.967 16.901C192.335 16.901 191.763 17.0483 191.251 17.343C190.749 17.629 190.35 18.045 190.055 18.591C189.769 19.1283 189.626 19.7523 189.626 20.463C189.626 21.1737 189.769 21.7977 190.055 22.335C190.35 22.8723 190.749 23.2883 191.251 23.583C191.763 23.869 192.335 24.012 192.967 24.012C193.851 24.012 194.579 23.7477 195.151 23.219C195.723 22.6903 196.057 21.9753 196.152 21.074H192.538V20.112H197.413V21.022C197.344 21.7673 197.11 22.452 196.711 23.076C196.313 23.6913 195.788 24.181 195.138 24.545C194.488 24.9003 193.765 25.078 192.967 25.078C192.127 25.078 191.36 24.883 190.666 24.493C189.973 24.0943 189.423 23.544 189.015 22.842C188.617 22.14 188.417 21.347 188.417 20.463C188.417 19.579 188.617 18.786 189.015 18.084C189.423 17.3733 189.973 16.823 190.666 16.433C191.36 16.0343 192.127 15.835 192.967 15.835C193.929 15.835 194.779 16.0733 195.515 16.55C196.261 17.0267 196.802 17.6983 197.14 18.565H195.723ZM200.161 15.939V25H198.978V15.939H200.161ZM213.131 15.939L209.712 25H208.347L204.928 15.939H206.189L209.036 23.752L211.883 15.939H213.131ZM219.784 22.985H215.832L215.104 25H213.856L217.132 15.991H218.497L221.76 25H220.512L219.784 22.985ZM219.446 22.023L217.808 17.447L216.17 22.023H219.446ZM224.189 23.973H228.609V25H222.785V24.064L227.179 16.966H222.837V15.939H228.583V16.875L224.189 23.973ZM231.404 15.939V25H230.221V15.939H231.404ZM238.191 25L236.033 21.295H234.603V25H233.42V15.939H236.345C237.03 15.939 237.606 16.056 238.074 16.29C238.551 16.524 238.906 16.8403 239.14 17.239C239.374 17.6377 239.491 18.0927 239.491 18.604C239.491 19.228 239.309 19.7783 238.945 20.255C238.59 20.7317 238.052 21.048 237.333 21.204L239.608 25H238.191ZM234.603 20.346H236.345C236.986 20.346 237.467 20.19 237.788 19.878C238.109 19.5573 238.269 19.1327 238.269 18.604C238.269 18.0667 238.109 17.6507 237.788 17.356C237.476 17.0613 236.995 16.914 236.345 16.914H234.603V20.346ZM242.512 24.038H245.684V25H241.329V15.939H242.512V24.038ZM248.123 15.939V25H246.94V15.939H248.123ZM257.004 18.565C256.752 18.0363 256.388 17.629 255.912 17.343C255.435 17.0483 254.88 16.901 254.248 16.901C253.615 16.901 253.043 17.0483 252.532 17.343C252.029 17.629 251.63 18.045 251.336 18.591C251.05 19.1283 250.907 19.7523 250.907 20.463C250.907 21.1737 251.05 21.7977 251.336 22.335C251.63 22.8723 252.029 23.2883 252.532 23.583C253.043 23.869 253.615 24.012 254.248 24.012C255.132 24.012 255.86 23.7477 256.432 23.219C257.004 22.6903 257.337 21.9753 257.433 21.074H253.819V20.112H258.694V21.022C258.624 21.7673 258.39 22.452 257.992 23.076C257.593 23.6913 257.069 24.181 256.419 24.545C255.769 24.9003 255.045 25.078 254.248 25.078C253.407 25.078 252.64 24.883 251.947 24.493C251.253 24.0943 250.703 23.544 250.296 22.842C249.897 22.14 249.698 21.347 249.698 20.463C249.698 19.579 249.897 18.786 250.296 18.084C250.703 17.3733 251.253 16.823 251.947 16.433C252.64 16.0343 253.407 15.835 254.248 15.835C255.21 15.835 256.059 16.0733 256.796 16.55C257.541 17.0267 258.083 17.6983 258.421 18.565H257.004ZM261.441 15.939V25H260.258V15.939H261.441ZM273.904 15.939V25H272.721V20.892H268.106V25H266.923V15.939H268.106V19.917H272.721V15.939H273.904ZM277.081 15.939V21.672C277.081 22.478 277.276 23.076 277.666 23.466C278.065 23.856 278.615 24.051 279.317 24.051C280.01 24.051 280.552 23.856 280.942 23.466C281.341 23.076 281.54 22.478 281.54 21.672V15.939H282.723V21.659C282.723 22.413 282.571 23.05 282.268 23.57C281.965 24.0813 281.553 24.4627 281.033 24.714C280.522 24.9653 279.945 25.091 279.304 25.091C278.663 25.091 278.082 24.9653 277.562 24.714C277.051 24.4627 276.643 24.0813 276.34 23.57C276.045 23.05 275.898 22.413 275.898 21.659V15.939H277.081ZM285.697 23.973H290.117V25H284.293V24.064L288.687 16.966H284.345V15.939H290.091V16.875L285.697 23.973ZM292.887 15.939V21.672C292.887 22.478 293.082 23.076 293.472 23.466C293.87 23.856 294.421 24.051 295.123 24.051C295.816 24.051 296.358 23.856 296.748 23.466C297.146 23.076 297.346 22.478 297.346 21.672V15.939H298.529V21.659C298.529 22.413 298.377 23.05 298.074 23.57C297.77 24.0813 297.359 24.4627 296.839 24.714C296.327 24.9653 295.751 25.091 295.11 25.091C294.468 25.091 293.888 24.9653 293.368 24.714C292.856 24.4627 292.449 24.0813 292.146 23.57C291.851 23.05 291.704 22.413 291.704 21.659V15.939H292.887ZM305.273 25L303.115 21.295H301.685V25H300.502V15.939H303.427C304.112 15.939 304.688 16.056 305.156 16.29C305.633 16.524 305.988 16.8403 306.222 17.239C306.456 17.6377 306.573 18.0927 306.573 18.604C306.573 19.228 306.391 19.7783 306.027 20.255C305.672 20.7317 305.134 21.048 304.415 21.204L306.69 25H305.273ZM301.685 20.346H303.427C304.068 20.346 304.549 20.19 304.87 19.878C305.191 19.5573 305.351 19.1327 305.351 18.604C305.351 18.0667 305.191 17.6507 304.87 17.356C304.558 17.0613 304.077 16.914 303.427 16.914H301.685V20.346ZM309.594 15.939V25H308.411V15.939H309.594ZM314.431 15.939C315.419 15.939 316.273 16.1253 316.992 16.498C317.72 16.862 318.275 17.3863 318.656 18.071C319.046 18.7557 319.241 19.5617 319.241 20.489C319.241 21.4163 319.046 22.2223 318.656 22.907C318.275 23.583 317.72 24.103 316.992 24.467C316.273 24.8223 315.419 25 314.431 25H311.61V15.939H314.431ZM314.431 24.025C315.601 24.025 316.494 23.7173 317.109 23.102C317.725 22.478 318.032 21.607 318.032 20.489C318.032 19.3623 317.72 18.4827 317.096 17.85C316.481 17.2173 315.593 16.901 314.431 16.901H312.793V24.025H314.431ZM326.158 22.985H322.206L321.478 25H320.23L323.506 15.991H324.871L328.134 25H326.886L326.158 22.985ZM325.82 22.023L324.182 17.447L322.544 22.023H325.82ZM336.426 18.565C336.174 18.0363 335.81 17.629 335.334 17.343C334.857 17.0483 334.302 16.901 333.67 16.901C333.037 16.901 332.465 17.0483 331.954 17.343C331.451 17.629 331.052 18.045 330.758 18.591C330.472 19.1283 330.329 19.7523 330.329 20.463C330.329 21.1737 330.472 21.7977 330.758 22.335C331.052 22.8723 331.451 23.2883 331.954 23.583C332.465 23.869 333.037 24.012 333.67 24.012C334.554 24.012 335.282 23.7477 335.854 23.219C336.426 22.6903 336.759 21.9753 336.855 21.074H333.241V20.112H338.116V21.022C338.046 21.7673 337.812 22.452 337.414 23.076C337.015 23.6913 336.491 24.181 335.841 24.545C335.191 24.9003 334.467 25.078 333.67 25.078C332.829 25.078 332.062 24.883 331.369 24.493C330.675 24.0943 330.125 23.544 329.718 22.842C329.319 22.14 329.12 21.347 329.12 20.463C329.12 19.579 329.319 18.786 329.718 18.084C330.125 17.3733 330.675 16.823 331.369 16.433C332.062 16.0343 332.829 15.835 333.67 15.835C334.632 15.835 335.481 16.0733 336.218 16.55C336.963 17.0267 337.505 17.6983 337.843 18.565H336.426ZM340.863 15.939V25H339.68V15.939H340.863Z" fill="#121212"/>
<path d="M0.00195312 2.5H7.41633C27.8914 2.5 44.4896 19.0984 44.4895 39.5734L44.4893 75.0001" stroke="#121212" stroke-width="3.2"/>
<path d="M0 9H6.4151C23.8186 9 37.927 23.1082 37.9273 40.5117L37.9278 75.0001" stroke="#121212" stroke-width="3.2"/>
<path d="M0 15.6829H5.41463C19.7471 15.6829 31.3659 27.3016 31.3659 41.6341V74.9999" stroke="#121212" stroke-width="3.2"/>
<path fill-rule="evenodd" clip-rule="evenodd" d="M68.5868 30.5122H66.7332C59.9313 30.5122 53.5797 32.4405 48.1953 35.7801V31.494C53.707 28.5034 60.0217 26.8049 66.7332 26.8049H68.5868V30.5122Z" fill="#121212"/>
<path fill-rule="evenodd" clip-rule="evenodd" d="M47.9133 55.6039C52.6531 49.3679 60.1498 45.3416 68.5869 45.3416V41.6343C60.4554 41.6343 53.0882 44.9067 47.7305 50.2063L47.9133 55.6039Z" fill="#121212"/>
<path fill-rule="evenodd" clip-rule="evenodd" d="M48.1953 45.4131C53.6914 40.7438 60.8101 37.9268 68.5868 37.9268V34.2195C60.9872 34.2195 53.9498 36.6265 48.1953 40.7197V45.4131Z" fill="#121212"/>
</svg>
