<svg width="48" height="48" viewBox="0 0 48 48" fill="none" xmlns="http://www.w3.org/2000/svg">
<rect width="48" height="48" rx="12" fill="#2B9EF1"/>
<path fill-rule="evenodd" clip-rule="evenodd" d="M30.4023 30.4917V30.49L30.4173 30.4542L32.9165 17.8542V17.8142C32.9165 17.5 32.7998 17.2258 32.5482 17.0617C32.3273 16.9175 32.0731 16.9075 31.8948 16.9208C31.7288 16.9358 31.565 16.9694 31.4065 17.0208C31.3389 17.0426 31.2722 17.0671 31.2065 17.0942L31.1956 17.0983L17.2623 22.5642L17.2581 22.5658C17.2158 22.5803 17.1743 22.5973 17.134 22.6167C17.0349 22.6612 16.9398 22.7141 16.8498 22.775C16.6706 22.8983 16.3298 23.1883 16.3873 23.6483C16.4348 24.03 16.6973 24.2717 16.8748 24.3975C16.9796 24.4709 17.0922 24.5324 17.2106 24.5808L17.2373 24.5925L17.2456 24.595L17.2515 24.5975L19.6898 25.4183C19.6815 25.5708 19.6965 25.7267 19.7373 25.8808L20.9581 30.5133C21.0248 30.7658 21.169 30.9911 21.3702 31.1575C21.5715 31.3239 21.8199 31.4231 22.0805 31.4411C22.341 31.4592 22.6007 31.3951 22.823 31.258C23.0452 31.1209 23.219 30.9176 23.3198 30.6767L25.2265 28.6383L28.5006 31.1483L28.5473 31.1683C28.8448 31.2983 29.1223 31.3392 29.3765 31.305C29.6306 31.27 29.8323 31.1633 29.984 31.0425C30.1594 30.9003 30.2992 30.7191 30.3923 30.5133L30.399 30.4992L30.4015 30.4942L30.4023 30.4917ZM20.9456 25.5625C20.9321 25.5111 20.9353 25.4567 20.9548 25.4073C20.9743 25.3578 21.009 25.3159 21.054 25.2875L29.3215 20.0375C29.3215 20.0375 29.8081 19.7417 29.7906 20.0375C29.7906 20.0375 29.8773 20.0892 29.6165 20.3317C29.3698 20.5625 23.724 26.0133 23.1523 26.565C23.1205 26.5959 23.0983 26.6352 23.0881 26.6783L22.1665 30.195L20.9456 25.5617V25.5625Z" fill="white"/>
</svg>
