<svg width="42" height="42" viewBox="0 0 42 42" fill="none" xmlns="http://www.w3.org/2000/svg">
<path d="M33.25 10.5H28V8.75C28 7.82174 27.6313 6.9315 26.9749 6.27513C26.3185 5.61875 25.4283 5.25 24.5 5.25H17.5C16.5717 5.25 15.6815 5.61875 15.0251 6.27513C14.3687 6.9315 14 7.82174 14 8.75V10.5H8.75C7.35761 10.5 6.02226 11.0531 5.03769 12.0377C4.05312 13.0223 3.5 14.3576 3.5 15.75V31.5C3.5 32.8924 4.05312 34.2277 5.03769 35.2123C6.02226 36.1969 7.35761 36.75 8.75 36.75H33.25C34.6424 36.75 35.9777 36.1969 36.9623 35.2123C37.9469 34.2277 38.5 32.8924 38.5 31.5V15.75C38.5 14.3576 37.9469 13.0223 36.9623 12.0377C35.9777 11.0531 34.6424 10.5 33.25 10.5ZM17.5 8.75H24.5V10.5H17.5V8.75ZM35 31.5C35 31.9641 34.8156 32.4093 34.4874 32.7374C34.1593 33.0656 33.7141 33.25 33.25 33.25H8.75C8.28587 33.25 7.84075 33.0656 7.51256 32.7374C7.18437 32.4093 7 31.9641 7 31.5V21.6825L15.19 24.5C15.3758 24.5252 15.5642 24.5252 15.75 24.5H26.25C26.4398 24.4965 26.6282 24.4671 26.81 24.4125L35 21.6825V31.5ZM35 17.99L25.97 21H16.03L7 17.99V15.75C7 15.2859 7.18437 14.8408 7.51256 14.5126C7.84075 14.1844 8.28587 14 8.75 14H33.25C33.7141 14 34.1593 14.1844 34.4874 14.5126C34.8156 14.8408 35 15.2859 35 15.75V17.99Z" fill="black"/>
</svg>
