<svg width="36" height="36" viewBox="0 0 36 36" fill="none" xmlns="http://www.w3.org/2000/svg">
<path d="M18 21C17.6022 21 17.2206 21.158 16.9393 21.4393C16.658 21.7206 16.5 22.1022 16.5 22.5V25.5C16.5 25.8978 16.658 26.2794 16.9393 26.5607C17.2206 26.842 17.6022 27 18 27C18.3978 27 18.7794 26.842 19.0607 26.5607C19.342 26.2794 19.5 25.8978 19.5 25.5V22.5C19.5 22.1022 19.342 21.7206 19.0607 21.4393C18.7794 21.158 18.3978 21 18 21ZM18.57 16.62C18.2985 16.4941 17.9955 16.4523 17.7 16.5L17.43 16.59L17.16 16.725L16.935 16.905C16.7923 17.0487 16.6802 17.2198 16.6055 17.408C16.5307 17.5962 16.4948 17.7976 16.5 18C16.4989 18.1974 16.5367 18.3931 16.6113 18.5759C16.686 18.7586 16.796 18.9248 16.935 19.065C17.0777 19.2016 17.2459 19.3086 17.43 19.38C17.608 19.464 17.8032 19.5051 18 19.5C18.1974 19.5011 18.3931 19.4633 18.5759 19.3887C18.7586 19.314 18.9248 19.204 19.065 19.065C19.204 18.9248 19.314 18.7586 19.3887 18.5759C19.4633 18.3931 19.5011 18.1974 19.5 18C19.5011 17.8026 19.4633 17.6069 19.3887 17.4241C19.314 17.2414 19.204 17.0752 19.065 16.935C18.9192 16.8025 18.7518 16.696 18.57 16.62ZM30 13.41C29.9844 13.2722 29.9542 13.1364 29.91 13.005V12.87C29.8379 12.7158 29.7417 12.574 29.625 12.45L20.625 3.45C20.501 3.33332 20.3592 3.23712 20.205 3.165H20.055C19.9091 3.087 19.7524 3.03138 19.59 3H10.5C9.30653 3 8.16193 3.47411 7.31802 4.31802C6.47411 5.16193 6 6.30653 6 7.5V28.5C6 29.6935 6.47411 30.8381 7.31802 31.682C8.16193 32.5259 9.30653 33 10.5 33H25.5C26.6935 33 27.8381 32.5259 28.682 31.682C29.5259 30.8381 30 29.6935 30 28.5V13.5C30 13.5 30 13.5 30 13.41ZM21 8.115L24.885 12H22.5C22.1022 12 21.7206 11.842 21.4393 11.5607C21.158 11.2794 21 10.8978 21 10.5V8.115ZM27 28.5C27 28.8978 26.842 29.2794 26.5607 29.5607C26.2794 29.842 25.8978 30 25.5 30H10.5C10.1022 30 9.72064 29.842 9.43934 29.5607C9.15804 29.2794 9 28.8978 9 28.5V7.5C9 7.10218 9.15804 6.72064 9.43934 6.43934C9.72064 6.15804 10.1022 6 10.5 6H18V10.5C18 11.6935 18.4741 12.8381 19.318 13.682C20.1619 14.5259 21.3065 15 22.5 15H27V28.5Z" fill="#222222"/>
</svg>
