<svg width="36" height="36" viewBox="0 0 36 36" fill="none" xmlns="http://www.w3.org/2000/svg">
<path d="M11.1303 23.3101C10.851 23.5911 10.6941 23.9713 10.6941 24.3676C10.6941 24.7639 10.851 25.144 11.1303 25.4251C11.2698 25.5657 11.4357 25.6773 11.6185 25.7534C11.8013 25.8296 11.9973 25.8688 12.1953 25.8688C12.3934 25.8688 12.5894 25.8296 12.7722 25.7534C12.955 25.6773 13.1209 25.5657 13.2603 25.4251C13.5397 25.144 13.6965 24.7639 13.6965 24.3676C13.6965 23.9713 13.5397 23.5911 13.2603 23.3101C13.1209 23.1695 12.955 23.0579 12.7722 22.9817C12.5894 22.9056 12.3934 22.8664 12.1953 22.8664C11.9973 22.8664 11.8013 22.9056 11.6185 22.9817C11.4357 23.0579 11.2698 23.1695 11.1303 23.3101ZM11.1303 10.5751C10.851 10.8561 10.6941 11.2363 10.6941 11.6326C10.6941 12.0289 10.851 12.409 11.1303 12.6901C11.2698 12.8307 11.4357 12.9423 11.6185 13.0184C11.8013 13.0946 11.9973 13.1338 12.1953 13.1338C12.3934 13.1338 12.5894 13.0946 12.7722 13.0184C12.955 12.9423 13.1209 12.8307 13.2603 12.6901C13.5397 12.409 13.6965 12.0289 13.6965 11.6326C13.6965 11.2363 13.5397 10.8561 13.2603 10.5751C13.1209 10.4345 12.955 10.3229 12.7722 10.2467C12.5894 10.1706 12.3934 10.1314 12.1953 10.1314C11.9973 10.1314 11.8013 10.1706 11.6185 10.2467C11.4357 10.3229 11.2698 10.4345 11.1303 10.5751ZM18.5553 25.5751C18.2587 25.5751 17.9687 25.6631 17.722 25.8279C17.4753 25.9927 17.283 26.227 17.1695 26.5011C17.056 26.7751 17.0263 27.0767 17.0842 27.3677C17.142 27.6587 17.2849 27.926 17.4947 28.1357C17.7045 28.3455 17.9717 28.4884 18.2627 28.5463C18.5537 28.6041 18.8553 28.5744 19.1294 28.4609C19.4035 28.3474 19.6377 28.1551 19.8025 27.9084C19.9674 27.6618 20.0553 27.3718 20.0553 27.0751C20.0655 26.8719 20.0342 26.6687 19.9634 26.478C19.8926 26.2873 19.7837 26.1129 19.6434 25.9656C19.5031 25.8183 19.3343 25.701 19.1472 25.621C18.9602 25.541 18.7588 25.4998 18.5553 25.5001V25.5751ZM9.55534 16.5751C9.25866 16.5751 8.96865 16.6631 8.72198 16.8279C8.47531 16.9927 8.28305 17.227 8.16952 17.5011C8.05598 17.7751 8.02628 18.0767 8.08416 18.3677C8.14204 18.6587 8.2849 18.926 8.49468 19.1357C8.70445 19.3455 8.97173 19.4884 9.2627 19.5463C9.55367 19.6041 9.85527 19.5744 10.1294 19.4609C10.4035 19.3474 10.6377 19.1551 10.8025 18.9084C10.9674 18.6618 11.0553 18.3718 11.0553 18.0751C11.0655 17.8719 11.0342 17.6687 10.9634 17.478C10.8926 17.2873 10.7837 17.1129 10.6434 16.9656C10.5031 16.8183 10.3343 16.701 10.1472 16.621C9.96017 16.541 9.75879 16.4998 9.55534 16.5001V16.5751ZM18.5553 7.57509C18.2587 7.57509 17.9687 7.66306 17.722 7.82788C17.4753 7.9927 17.283 8.22697 17.1695 8.50106C17.056 8.77515 17.0263 9.07675 17.0842 9.36772C17.142 9.65869 17.2849 9.92597 17.4947 10.1357C17.7045 10.3455 17.9717 10.4884 18.2627 10.5463C18.5537 10.6041 18.8553 10.5744 19.1294 10.4609C19.4035 10.3474 19.6377 10.1551 19.8025 9.90844C19.9674 9.66177 20.0553 9.37176 20.0553 9.07509C20.0655 8.87188 20.0342 8.66874 19.9634 8.478C19.8926 8.28727 19.7837 8.11293 19.6434 7.9656C19.5031 7.81827 19.3343 7.70103 19.1472 7.621C18.9602 7.54097 18.7588 7.49983 18.5553 7.50009V7.57509ZM23.8653 10.6501C23.6547 10.8595 23.5109 11.1268 23.4523 11.418C23.3937 11.7092 23.4229 12.0113 23.5362 12.2859C23.6494 12.5605 23.8417 12.7953 24.0886 12.9605C24.3354 13.1257 24.6258 13.2139 24.9228 13.2139C25.2199 13.2139 25.5103 13.1257 25.7571 12.9605C26.004 12.7953 26.1962 12.5605 26.3095 12.2859C26.4228 12.0113 26.452 11.7092 26.3934 11.418C26.3348 11.1268 26.191 10.8595 25.9803 10.6501C25.7093 10.3605 25.3347 10.1901 24.9383 10.176C24.542 10.162 24.1562 10.3054 23.8653 10.5751V10.6501ZM33.3153 10.6501C31.9439 7.90853 29.836 5.60321 27.2277 3.99264C24.6195 2.38206 21.6142 1.52991 18.5487 1.53174C15.4833 1.53357 12.479 2.38931 9.87271 4.00301C7.26641 5.6167 5.16117 7.92454 3.79306 10.6677C2.42495 13.4109 1.84807 16.481 2.1271 19.5337C2.40614 22.5864 3.53006 25.501 5.37284 27.9507C7.21561 30.4004 9.70437 32.2883 12.56 33.4027C15.4157 34.5172 18.5254 34.814 21.5403 34.2601C22.2985 34.1174 23.0206 33.8251 23.6645 33.4001C24.3084 32.9752 24.8611 32.4261 25.2903 31.7851C25.7529 31.0882 26.072 30.3061 26.2291 29.4846C26.3862 28.6631 26.3781 27.8185 26.2053 27.0001C26.1109 26.5055 26.0607 26.0035 26.0553 25.5001C26.0619 24.0465 26.4907 22.6262 27.2896 21.4119C28.0885 20.1975 29.2231 19.2415 30.5553 18.6601C31.2736 18.3385 31.9184 17.8731 32.4499 17.2926C32.9813 16.7121 33.3882 16.0289 33.6453 15.2851C33.9054 14.525 34.0102 13.7204 33.9536 12.9191C33.8969 12.1178 33.6798 11.336 33.3153 10.6201V10.6501ZM30.7653 14.3101C30.6373 14.6691 30.4386 14.9987 30.181 15.2796C29.9233 15.5604 29.612 15.7867 29.2653 15.9451C27.4203 16.771 25.8529 18.1119 24.7513 19.8068C23.6498 21.5018 23.0609 23.4786 23.0553 25.5001C23.0576 26.2052 23.1279 26.9085 23.2653 27.6001C23.3569 28.0228 23.363 28.4595 23.2831 28.8846C23.2033 29.3097 23.0391 29.7145 22.8003 30.0751C22.5983 30.3907 22.3324 30.6605 22.0198 30.8672C21.7072 31.0738 21.3549 31.2128 20.9853 31.2751C20.1841 31.4256 19.3706 31.501 18.5553 31.5001C16.7466 31.501 14.9561 31.1384 13.2902 30.4338C11.6243 29.7293 10.117 28.6971 8.85778 27.3987C7.59854 26.1003 6.61306 24.5621 5.95986 22.8754C5.30666 21.1887 4.99906 19.388 5.05534 17.5801C5.17175 14.2093 6.53884 11.0025 8.89028 8.58453C11.2417 6.16654 14.4091 4.71051 17.7753 4.50009H18.5403C21.054 4.50072 23.5175 5.20312 25.6535 6.52818C27.7895 7.85325 29.5132 9.74836 30.6303 12.0001C30.9742 12.7126 31.0227 13.532 30.7653 14.2801V14.3101ZM18.5553 16.5001C18.2587 16.5001 17.9687 16.5881 17.722 16.7529C17.4753 16.9177 17.283 17.152 17.1695 17.4261C17.056 17.7001 17.0263 18.0017 17.0842 18.2927C17.142 18.5837 17.2849 18.851 17.4947 19.0607C17.7045 19.2705 17.9717 19.4134 18.2627 19.4713C18.5537 19.5291 18.8553 19.4994 19.1294 19.3859C19.4035 19.2724 19.6377 19.0801 19.8025 18.8334C19.9674 18.5868 20.0553 18.2968 20.0553 18.0001C20.0553 17.6023 19.8973 17.2207 19.616 16.9394C19.3347 16.6581 18.9532 16.5001 18.5553 16.5001Z" fill="#222222"/>
</svg>
