<svg width="36" height="36" viewBox="0 0 36 36" fill="none" xmlns="http://www.w3.org/2000/svg">
<path d="M31.5 3H4.5C4.10218 3 3.72064 3.15804 3.43934 3.43934C3.15804 3.72064 3 4.10218 3 4.5V31.5C3 31.8978 3.15804 32.2794 3.43934 32.5607C3.72064 32.842 4.10218 33 4.5 33H31.5C31.8978 33 32.2794 32.842 32.5607 32.5607C32.842 32.2794 33 31.8978 33 31.5V4.5C33 4.10218 32.842 3.72064 32.5607 3.43934C32.2794 3.15804 31.8978 3 31.5 3ZM16.5 30H6V15H16.5V30ZM30 30H19.5V15H30V30ZM30 12H6V6H30V12Z" fill="#222222"/>
</svg>
